<svg xmlns="http://www.w3.org/2000/svg" version="1.1" xmlns:xlink="http://www.w3.org/1999/xlink" xmlns:svgjs="http://svgjs.dev/svgjs" width="1500" height="412" viewBox="0 0 1500 412"><g transform="matrix(1,0,0,1,-0.9090909090909918,-0.9805687859385728)"><svg viewBox="0 0 396 109" data-background-color="#ffffff" preserveAspectRatio="xMidYMid meet" height="412" width="1500" xmlns="http://www.w3.org/2000/svg" xmlns:xlink="http://www.w3.org/1999/xlink"><g id="tight-bounds" transform="matrix(1,0,0,1,0.2400000000000091,0.2594223244352065)"><svg viewBox="0 0 395.52 108.4810551057857" height="108.4810551057857" width="395.52"><g><svg viewBox="0 0 571.9045992752139 156.8588550496227" height="108.4810551057857" width="395.52"><g transform="matrix(1,0,0,1,176.38459927521384,45.94793711001113)"><svg viewBox="0 0 395.52 64.96298082960043" height="64.96298082960043" width="395.52"><g id="textblocktransform"><svg viewBox="0 0 395.52 64.96298082960043" height="64.96298082960043" width="395.52" id="textblock"><g><svg viewBox="0 0 395.52 41.35478453038674" height="41.35478453038674" width="395.52"><g transform="matrix(1,0,0,1,0,0)"><svg width="395.52" viewBox="2.2 -36.35 361.97 37.85" height="41.35478453038674" data-palette-color="#000000"><path d="M29.6-5.45L29.6-5.45Q30.25-5.25 30.48-4.8 30.7-4.35 30.75-3.8L30.75-3.8Q28.45-1.5 25.55-0.25 22.65 1 19.35 1L19.35 1Q16 1 12.93-0.1 9.85-1.2 7.43-3.48 5-5.75 3.6-9.22 2.2-12.7 2.2-17.5L2.2-17.5Q2.2-22.25 3.78-25.73 5.35-29.2 7.93-31.48 10.5-33.75 13.63-34.88 16.75-36 19.85-36L19.85-36Q23.5-36 26.23-35.43 28.95-34.85 30.95-33.75L30.95-33.75Q31.05-31.45 30.58-29.45 30.1-27.45 29.4-25.55L29.4-25.55Q28.9-25.5 28.3-25.55 27.7-25.6 27.2-25.8L27.2-25.8 26.65-32.25Q25-32.95 23.5-33.15 22-33.35 20.2-33.35L20.2-33.35Q16.7-33.35 13.93-31.25 11.15-29.15 9.58-25.55 8-21.95 8-17.5L8-17.5Q8-12.8 9.35-9.22 10.7-5.65 13.35-3.65 16-1.65 19.9-1.65L19.9-1.65Q23-1.65 25.35-2.75 27.7-3.85 29.6-5.45ZM34.5-17.55L34.5-17.55Q34.5-22.9 36.52-27.08 38.55-31.25 42.27-33.63 46-36 51.05-36L51.05-36Q56.15-36 59.9-33.63 63.65-31.25 65.7-27.08 67.75-22.9 67.75-17.55L67.75-17.55Q67.75-12 65.7-7.83 63.65-3.65 59.9-1.33 56.15 1 51.05 1L51.05 1Q46 1 42.27-1.33 38.55-3.65 36.52-7.83 34.5-12 34.5-17.55ZM62-17.9L62-17.9Q62-20.85 61.27-23.68 60.55-26.5 59.15-28.75 57.75-31 55.67-32.35 53.6-33.7 50.9-33.7L50.9-33.7Q48-33.7 45.97-32.33 43.95-30.95 42.67-28.6 41.4-26.25 40.82-23.28 40.25-20.3 40.25-17.1L40.25-17.1Q40.25-14.1 40.95-11.28 41.65-8.45 43.05-6.2 44.45-3.95 46.6-2.63 48.75-1.3 51.6-1.3L51.6-1.3Q54.3-1.3 56.27-2.63 58.25-3.95 59.5-6.25 60.75-8.55 61.37-11.55 62-14.55 62-17.9ZM82.85 0.95L82.85 0.95Q80 0.95 77.22 0.55 74.45 0.15 72.4-0.8L72.4-0.8Q72.4-2.95 72.72-5.13 73.05-7.3 73.7-9.5L73.7-9.5Q73.85-9.5 74-9.53 74.15-9.55 74.35-9.55L74.35-9.55Q75.25-9.55 75.9-9.25L75.9-9.25 76.7-2.6Q77.65-2.4 79.02-2.13 80.4-1.85 82.1-1.85L82.1-1.85Q83.9-1.85 85.8-2.3 87.7-2.75 89-3.93 90.3-5.1 90.3-7.3L90.3-7.3Q90.3-8.6 90.02-9.65 89.75-10.7 88.8-11.7 87.85-12.7 85.9-13.83 83.95-14.95 80.6-16.4L80.6-16.4Q77-18 75.27-19.6 73.55-21.2 73.05-22.98 72.55-24.75 72.55-26.8L72.55-26.8Q72.55-29.95 74.37-31.93 76.2-33.9 79.15-34.85 82.1-35.8 85.4-35.8L85.4-35.8Q87.6-35.8 89.8-35.43 92-35.05 93.9-34.3L93.9-34.3Q94-32 93.52-29.93 93.05-27.85 92.35-25.85L92.35-25.85Q92.2-25.8 92.02-25.8 91.85-25.8 91.7-25.8L91.7-25.8Q90.85-25.8 90.15-26.1L90.15-26.1 89.6-32.75Q88.55-33.05 87.4-33.23 86.25-33.4 85.1-33.4L85.1-33.4Q83.15-33.4 81.35-32.83 79.55-32.25 78.42-31 77.3-29.75 77.3-27.65L77.3-27.65Q77.3-26.25 77.8-25.13 78.3-24 79.82-22.93 81.35-21.85 84.45-20.45L84.45-20.45Q88.35-18.75 90.8-17.25 93.25-15.75 94.4-13.8 95.55-11.85 95.55-8.7L95.55-8.7Q95.55-6.25 94.45-4.42 93.35-2.6 91.5-1.43 89.65-0.25 87.4 0.35 85.15 0.95 82.85 0.95ZM116.39-16.05L116.39-2.5 120.74-1.5Q120.89-0.55 120.49 0.25L120.49 0.25Q119.14 0.15 117.22 0.08 115.29 0 113.89 0L113.89 0Q112.49 0 110.47 0.08 108.44 0.15 107.04 0.25L107.04 0.25Q106.89-0.7 107.14-1.5L107.14-1.5Q108.14-1.65 109.14-1.83 110.14-2 111.14-2.5L111.14-2.5 111.14-15.05 100.39-32.5 96.54-33.5Q96.39-34.45 96.79-35.25L96.79-35.25Q98.14-35.2 100.04-35.1 101.94-35 103.34-35L103.34-35Q104.29-35 105.57-35.05 106.84-35.1 108.14-35.15 109.44-35.2 110.34-35.25L110.34-35.25Q110.49-34.3 110.24-33.5L110.24-33.5Q109.24-33.35 108.22-33.18 107.19-33 106.19-32.5L106.19-32.5 114.44-18.3 114.64-18.3 122.94-32.5 119.09-33.5Q118.94-34.45 119.34-35.25L119.34-35.25Q120.69-35.2 122.14-35.1 123.59-35 124.99-35L124.99-35Q126.44-35 127.69-35.1 128.94-35.2 130.34-35.25L130.34-35.25Q130.49-34.3 130.24-33.5L130.24-33.5Q129.19-33.35 128.07-33.15 126.94-32.95 125.99-32.5L125.99-32.5 116.39-16.05ZM140.24-35L141.49-32.4 156.94-12.55Q157.79-11.45 158.41-10.2 159.04-8.95 159.64-7.65L159.64-7.65 159.79-7.65Q159.74-8.85 159.62-9.95 159.49-11.05 159.49-12.45L159.49-12.45 159.44-32.5 155.59-33.5Q155.44-34.45 155.84-35.25L155.84-35.25Q157.19-35.2 158.31-35.1 159.44-35 160.84-35L160.84-35Q162.29-35 163.62-35.1 164.94-35.2 166.34-35.25L166.34-35.25Q166.49-34.3 166.24-33.5L166.24-33.5Q165.24-33.3 164.24-33.1 163.24-32.9 162.24-32.5L162.24-32.5 162.24 1Q162.04 1.1 161.79 1.25 161.54 1.4 161.24 1.5L161.24 1.5 141.34-23.75Q140.54-24.8 139.84-26 139.14-27.2 138.39-28.5L138.39-28.5 138.24-28.5Q138.44-27.35 138.47-26.03 138.49-24.7 138.49-23.6L138.49-23.6 138.49-2.5 142.34-1.45Q142.49-0.5 142.09 0.3L142.09 0.3Q140.74 0.2 139.49 0.1 138.24 0 136.84 0L136.84 0Q135.44 0 134.29 0.08 133.14 0.15 131.74 0.25L131.74 0.25Q131.59-0.7 131.84-1.5L131.84-1.5Q132.84-1.65 133.81-1.9 134.79-2.15 135.74-2.5L135.74-2.5 135.74-32.5 131.89-33.5Q131.74-34.45 132.14-35.25L132.14-35.25Q133.49-35.2 135.16-35.1 136.84-35 138.24-35L138.24-35 140.24-35ZM197.39-5.45L197.39-5.45Q198.04-5.25 198.26-4.8 198.49-4.35 198.54-3.8L198.54-3.8Q196.24-1.5 193.34-0.25 190.44 1 187.14 1L187.14 1Q183.79 1 180.71-0.1 177.64-1.2 175.21-3.48 172.79-5.75 171.39-9.22 169.99-12.7 169.99-17.5L169.99-17.5Q169.99-22.25 171.56-25.73 173.14-29.2 175.71-31.48 178.29-33.75 181.41-34.88 184.54-36 187.64-36L187.64-36Q191.29-36 194.01-35.43 196.74-34.85 198.74-33.75L198.74-33.75Q198.84-31.45 198.36-29.45 197.89-27.45 197.19-25.55L197.19-25.55Q196.69-25.5 196.09-25.55 195.49-25.6 194.99-25.8L194.99-25.8 194.44-32.25Q192.79-32.95 191.29-33.15 189.79-33.35 187.99-33.35L187.99-33.35Q184.49-33.35 181.71-31.25 178.94-29.15 177.36-25.55 175.79-21.95 175.79-17.5L175.79-17.5Q175.79-12.8 177.14-9.22 178.49-5.65 181.14-3.65 183.79-1.65 187.69-1.65L187.69-1.65Q190.79-1.65 193.14-2.75 195.49-3.85 197.39-5.45ZM224.83 0.95L224.83 0.95Q221.98 0.95 219.21 0.55 216.43 0.15 214.38-0.8L214.38-0.8Q214.38-2.95 214.71-5.13 215.03-7.3 215.68-9.5L215.68-9.5Q215.83-9.5 215.98-9.53 216.13-9.55 216.33-9.55L216.33-9.55Q217.23-9.55 217.88-9.25L217.88-9.25 218.68-2.6Q219.63-2.4 221.01-2.13 222.38-1.85 224.08-1.85L224.08-1.85Q225.88-1.85 227.78-2.3 229.68-2.75 230.98-3.93 232.28-5.1 232.28-7.3L232.28-7.3Q232.28-8.6 232.01-9.65 231.73-10.7 230.78-11.7 229.83-12.7 227.88-13.83 225.93-14.95 222.58-16.4L222.58-16.4Q218.98-18 217.26-19.6 215.53-21.2 215.03-22.98 214.53-24.75 214.53-26.8L214.53-26.8Q214.53-29.95 216.36-31.93 218.18-33.9 221.13-34.85 224.08-35.8 227.38-35.8L227.38-35.8Q229.58-35.8 231.78-35.43 233.98-35.05 235.88-34.3L235.88-34.3Q235.98-32 235.51-29.93 235.03-27.85 234.33-25.85L234.33-25.85Q234.18-25.8 234.01-25.8 233.83-25.8 233.68-25.8L233.68-25.8Q232.83-25.8 232.13-26.1L232.13-26.1 231.58-32.75Q230.53-33.05 229.38-33.23 228.23-33.4 227.08-33.4L227.08-33.4Q225.13-33.4 223.33-32.83 221.53-32.25 220.41-31 219.28-29.75 219.28-27.65L219.28-27.65Q219.28-26.25 219.78-25.13 220.28-24 221.81-22.93 223.33-21.85 226.43-20.45L226.43-20.45Q230.33-18.75 232.78-17.25 235.23-15.75 236.38-13.8 237.53-11.85 237.53-8.7L237.53-8.7Q237.53-6.25 236.43-4.42 235.33-2.6 233.48-1.43 231.63-0.25 229.38 0.35 227.13 0.95 224.83 0.95ZM252.98-13.95L252.98-13.95Q252.33-13.95 251.63-14 250.93-14.05 250.28-14.1L250.28-14.1 250.28-2.5 255.13-1.5Q255.28-0.55 254.88 0.25L254.88 0.25Q253.98 0.2 252.66 0.15 251.33 0.1 250.03 0.05 248.73 0 247.78 0L247.78 0Q246.38 0 244.36 0.08 242.33 0.15 240.93 0.25L240.93 0.25Q240.78-0.7 241.03-1.5L241.03-1.5Q242.13-1.65 243.13-1.85 244.13-2.05 245.03-2.5L245.03-2.5 245.03-32.5 241.18-33.5Q241.03-34.45 241.43-35.25L241.43-35.25Q242.78-35.2 244.46-35.1 246.13-35 247.53-35L247.53-35Q249.73-35 251.38-35.23 253.03-35.45 254.28-35.45L254.28-35.45Q260.53-35.45 264.03-32.7 267.53-29.95 267.53-25.1L267.53-25.1Q267.53-22.05 266.28-19.93 265.03-17.8 262.93-16.48 260.83-15.15 258.23-14.55 255.63-13.95 252.98-13.95ZM253.93-33.2L253.93-33.2Q252.18-33.2 250.28-32.75L250.28-32.75 250.28-16.55Q251.88-16.25 253.38-16.25L253.38-16.25Q255.83-16.25 257.83-17.13 259.83-18 261-19.88 262.18-21.75 262.18-24.8L262.18-24.8Q262.18-27.45 261.08-29.33 259.98-31.2 258.11-32.2 256.23-33.2 253.93-33.2ZM290.43-12L278.83-12 275.58-2.5 279.43-1.5Q279.58-0.55 279.18 0.25L279.18 0.25Q277.83 0.15 276.15 0.08 274.48 0 273.08 0L273.08 0Q271.68 0 270.78 0.08 269.88 0.15 268.48 0.25L268.48 0.25Q268.33-0.7 268.58-1.5L268.58-1.5Q269.68-1.65 270.63-1.9 271.58-2.15 272.43-2.5L272.43-2.5 284.28-35.95Q284.68-36.2 285.25-36.27 285.83-36.35 286.23-36.35L286.23-36.35 299.78-2.5 303.63-1.5Q303.78-0.55 303.38 0.25L303.38 0.25Q302.03 0.15 300.35 0.08 298.68 0 297.28 0L297.28 0Q296.33 0 294.98 0.05 293.63 0.1 292.3 0.15 290.98 0.2 290.03 0.25L290.03 0.25Q289.88-0.7 290.13-1.5L290.13-1.5Q291.28-1.65 292.25-1.9 293.23-2.15 294.13-2.5L294.13-2.5 290.43-12ZM284.38-29L284.28-29Q283.78-27.2 283.25-25.35 282.73-23.5 282.08-21.6L282.08-21.6 279.73-14.75 289.33-14.75 286.58-21.85Q285.73-23.9 285.2-25.6 284.68-27.3 284.38-29L284.38-29ZM332.48-5.45L332.48-5.45Q333.13-5.25 333.35-4.8 333.57-4.35 333.63-3.8L333.63-3.8Q331.32-1.5 328.43-0.25 325.52 1 322.23 1L322.23 1Q318.88 1 315.8-0.1 312.73-1.2 310.3-3.48 307.88-5.75 306.48-9.22 305.07-12.7 305.07-17.5L305.07-17.5Q305.07-22.25 306.65-25.73 308.23-29.2 310.8-31.48 313.38-33.75 316.5-34.88 319.63-36 322.73-36L322.73-36Q326.38-36 329.1-35.43 331.82-34.85 333.82-33.75L333.82-33.75Q333.93-31.45 333.45-29.45 332.98-27.45 332.27-25.55L332.27-25.55Q331.77-25.5 331.18-25.55 330.57-25.6 330.07-25.8L330.07-25.8 329.52-32.25Q327.88-32.95 326.38-33.15 324.88-33.35 323.07-33.35L323.07-33.35Q319.57-33.35 316.8-31.25 314.02-29.15 312.45-25.55 310.88-21.95 310.88-17.5L310.88-17.5Q310.88-12.8 312.23-9.22 313.57-5.65 316.23-3.65 318.88-1.65 322.77-1.65L322.77-1.65Q325.88-1.65 328.23-2.75 330.57-3.85 332.48-5.45ZM355.57-16.5L346.27-16.5 346.27-2.25 360.77-2.25 361.82-8.9Q362.42-9 362.75-8.97 363.07-8.95 363.57-8.75L363.57-8.75Q363.97-6.95 364.07-5.15 364.17-3.35 364.17-1.55L364.17-1.55 364.17 0 343.77 0Q342.37 0 340.45 0.08 338.52 0.15 337.12 0.25L337.12 0.25Q336.97-0.7 337.22-1.5L337.22-1.5Q338.17-1.7 339.12-1.93 340.07-2.15 341.02-2.5L341.02-2.5 341.02-32.5 337.17-33.5Q337.02-34.45 337.42-35.25L337.42-35.25Q338.77-35.2 340.45-35.1 342.12-35 343.52-35L343.52-35 362.77-35Q362.82-32.8 362.72-30.6 362.62-28.4 362.22-26.25L362.22-26.25Q361.72-26.05 361.37-26.05 361.02-26.05 360.42-26.1L360.42-26.1 359.12-32.75 346.27-32.75 346.27-19.25 355.57-19.25 356.52-23.65Q356.97-23.8 357.52-23.78 358.07-23.75 358.52-23.4L358.52-23.4Q358.42-22.3 358.37-20.9 358.32-19.5 358.32-18.05L358.32-18.05Q358.32-16.45 358.37-14.9 358.42-13.35 358.52-12.15L358.52-12.15Q358.07-11.95 357.52-11.95 356.97-11.95 356.52-12.05L356.52-12.05 355.57-16.5Z" opacity="1" transform="matrix(1,0,0,1,0,0)" fill="#000000" class="wordmark-text-0" data-fill-palette-color="primary" id="text-0"></path></svg></g></svg></g><g transform="matrix(1,0,0,1,0,51.117656643182315)"><svg viewBox="0 0 232.209792 13.84532418641811" height="13.84532418641811" width="232.209792"><g transform="matrix(1,0,0,1,0,0)"><svg width="232.209792" viewBox="2 -32.45 675.83 40.300000000000004" height="13.84532418641811" data-palette-color="#61777f"><path d="M16.95 0.6Q12.45 0.6 9.05-1.3 5.65-3.2 3.83-6.68 2-10.15 2-14.85L2-14.85Q2-19.85 4.25-23.88 6.5-27.9 10.48-30.18 14.45-32.45 19.45-32.45L19.45-32.45Q21.3-32.45 23.23-32.18 25.15-31.9 26.48-31.63 27.8-31.35 28.15-31.25L28.15-31.25 28.35-30.95Q28.25-30.65 28.03-29.5 27.8-28.35 27.53-26.5 27.25-24.65 27.1-22.6L27.1-22.6 24.7-22.4Q24.75-22.65 24.8-23.33 24.85-24 24.85-24.85L24.85-24.85Q24.85-29.5 17.5-29.5L17.5-29.5Q14.2-29.5 11.7-27.9 9.2-26.3 7.85-23.38 6.5-20.45 6.5-16.5L6.5-16.5Q6.5-12.15 7.93-8.85 9.35-5.55 11.95-3.73 14.55-1.9 17.95-1.9L17.95-1.9Q21.35-1.9 23.43-3.83 25.5-5.75 26.45-9.8L26.45-9.8 28.85-10Q28.7-9.25 28.2-6.68 27.7-4.1 27.5-1.85L27.5-1.85 27.2-1.4Q27.2-1.35 25.68-0.83 24.15-0.3 21.88 0.15 19.6 0.6 16.95 0.6L16.95 0.6ZM44.25 0.45Q40.85 0.45 38.22-1.05 35.6-2.55 34.17-5.3 32.75-8.05 32.75-11.65L32.75-11.65Q32.75-15.55 34.52-18.68 36.3-21.8 39.37-23.58 42.45-25.35 46.25-25.35L46.25-25.35Q49.7-25.35 52.35-23.85 55-22.35 56.45-19.63 57.9-16.9 57.9-13.3L57.9-13.3Q57.9-9.4 56.12-6.28 54.35-3.15 51.22-1.35 48.1 0.45 44.25 0.45L44.25 0.45ZM45.45-1.95Q49.1-1.95 51.35-4.58 53.6-7.2 53.6-11.55L53.6-11.55Q53.6-14.85 52.52-17.35 51.45-19.85 49.47-21.2 47.5-22.55 44.9-22.55L44.9-22.55Q41.35-22.55 39.17-19.95 37-17.35 37-13L37-13Q37-9.7 38.05-7.2 39.1-4.7 41.02-3.33 42.95-1.95 45.45-1.95L45.45-1.95ZM83.05-6.8L83-21.25Q83-22.9 81.65-22.9L81.65-22.9 80.15-22.9 80.05-23.1 80.4-25.05Q80.84-25 82.09-24.95 83.34-24.9 84.65-24.9L84.65-24.9Q85.75-24.9 87.12-25.03 88.5-25.15 88.9-25.2L88.9-25.2 88.69-23.15Q87.25-22.95 86.62-22.38 86-21.8 85.94-20.65L85.94-20.65 85.34 0.85 83.4 1.4Q78.64-5.55 73.8-12.2 68.94-18.85 68.94-18.75L68.94-18.75 68.69-18.75 68.55-3.6Q68.55-2.65 68.84-2.3 69.14-1.95 69.84-1.95L69.84-1.95 71.84-2 72-1.85 71.59 0.15Q71.14 0.1 69.82 0.05 68.5 0 67.05 0L67.05 0Q65.89 0 64.59 0.13 63.3 0.25 62.9 0.3L62.9 0.3 63.15-1.75Q64.39-1.9 65-2.48 65.59-3.05 65.64-4.2L65.64-4.2 66.19-20.7Q66.19-21.95 65.47-22.43 64.75-22.9 62.7-23.15L62.7-23.15 62.49-23.4 62.84-25.1Q63.24-25.05 64.37-24.98 65.5-24.9 66.64-24.9L66.64-24.9Q67.75-24.9 68.59-24.95 69.44-25 69.69-25.05L69.69-25.05Q73.75-19.1 78.27-12.9 82.8-6.7 82.8-6.8L82.8-6.8 83.05-6.8ZM113.74-6.8L113.69-21.25Q113.69-22.9 112.34-22.9L112.34-22.9 110.84-22.9 110.74-23.1 111.09-25.05Q111.54-25 112.79-24.95 114.04-24.9 115.34-24.9L115.34-24.9Q116.44-24.9 117.82-25.03 119.19-25.15 119.59-25.2L119.59-25.2 119.39-23.15Q117.94-22.95 117.32-22.38 116.69-21.8 116.64-20.65L116.64-20.65 116.04 0.85 114.09 1.4Q109.34-5.55 104.49-12.2 99.64-18.85 99.64-18.75L99.64-18.75 99.39-18.75 99.24-3.6Q99.24-2.65 99.54-2.3 99.84-1.95 100.54-1.95L100.54-1.95 102.54-2 102.69-1.85 102.29 0.15Q101.84 0.1 100.52 0.05 99.19 0 97.74 0L97.74 0Q96.59 0 95.29 0.13 93.99 0.25 93.59 0.3L93.59 0.3 93.84-1.75Q95.09-1.9 95.69-2.48 96.29-3.05 96.34-4.2L96.34-4.2 96.89-20.7Q96.89-21.95 96.17-22.43 95.44-22.9 93.39-23.15L93.39-23.15 93.19-23.4 93.54-25.1Q93.94-25.05 95.07-24.98 96.19-24.9 97.34-24.9L97.34-24.9Q98.44-24.9 99.29-24.95 100.14-25 100.39-25.05L100.39-25.05Q104.44-19.1 108.97-12.9 113.49-6.7 113.49-6.8L113.49-6.8 113.74-6.8ZM124.04 0.4L124.29-1.7Q126.14-1.9 126.79-2.6 127.44-3.3 127.44-5L127.44-5 127.49-20.85Q127.49-22.1 127.19-22.53 126.89-22.95 125.99-22.95L125.99-22.95 124.64-22.9 124.54-23.1 124.84-25Q125.44-25 127.19-24.95 128.94-24.9 130.99-24.9L130.99-24.9Q139.34-24.9 143.34-25.35L143.34-25.35 143.49-25.1Q143.39-24.55 143.04-22.6 142.69-20.65 142.54-18.4L142.54-18.4 140.14-18.2Q140.14-18.4 140.19-18.88 140.24-19.35 140.24-19.85L140.24-19.85Q140.24-21.15 139.87-21.68 139.49-22.2 138.32-22.38 137.14-22.55 134.24-22.55L134.24-22.55Q132.89-22.55 132.39-22.48 131.89-22.4 131.74-22.13 131.59-21.85 131.54-21.1L131.54-21.1 131.24-14 135.34-13.95Q136.24-13.95 137.99-14.13 139.74-14.3 140.29-14.35L140.29-14.35 140.49-14.1 139.89-11.5Q139.34-11.5 137.72-11.55 136.09-11.6 134.29-11.6L134.29-11.6Q132.89-11.6 131.14-11.35L131.14-11.35Q130.99-7.55 130.99-4.5L130.99-4.5Q130.99-3.35 131.17-2.9 131.34-2.45 131.97-2.3 132.59-2.15 134.04-2.15L134.04-2.15Q137.29-2.15 138.69-2.45 140.09-2.75 140.67-3.68 141.24-4.6 141.59-6.85L141.59-6.85 143.79-7.05 143.99-6.8Q143.84-6.25 143.47-4.23 143.09-2.2 142.89 0L142.89 0 142.59 0.25Q141.24 0.2 136.99 0.1 132.74 0 130.09 0L130.09 0Q128.04 0 126.29 0.18 124.54 0.35 124.04 0.4L124.04 0.4ZM160.04 0.45Q154.39 0.45 151.09-2.8 147.79-6.05 147.79-11.65L147.79-11.65Q147.79-15.6 149.61-18.73 151.44-21.85 154.71-23.6 157.99-25.35 162.14-25.35L162.14-25.35Q163.64-25.35 165.26-25.15 166.89-24.95 168.01-24.7 169.14-24.45 169.44-24.4L169.44-24.4 169.64-24.1Q169.59-23.85 169.39-22.93 169.19-22 168.94-20.5 168.69-19 168.59-17.3L168.59-17.3 166.09-17.15Q166.09-17.3 166.14-17.85 166.19-18.4 166.19-19.1L166.19-19.1Q166.19-22.6 160.59-22.6L160.59-22.6Q156.69-22.6 154.44-20.03 152.19-17.45 152.19-12.95L152.19-12.95Q152.19-7.95 154.56-5 156.94-2.05 160.94-2.05L160.94-2.05Q163.59-2.05 165.16-3.48 166.74-4.9 167.44-7.95L167.44-7.95 169.94-8.15Q169.79-7.55 169.41-5.45 169.04-3.35 168.89-1.5L168.89-1.5 168.59-1.1Q168.29-1 167.16-0.63 166.04-0.25 164.14 0.1 162.24 0.45 160.04 0.45L160.04 0.45ZM177.89 0.2L178.24-1.8Q180.24-1.95 181.06-2.3 181.89-2.65 182.11-3.48 182.34-4.3 182.34-6.35L182.34-6.35 182.34-22.9Q179.19-22.8 178.09-22.55 176.99-22.3 176.46-21.38 175.94-20.45 175.59-17.9L175.59-17.9 173.24-17.75Q173.34-18.4 173.56-20.63 173.79-22.85 173.84-25L173.84-25 174.24-25.35 177.79-24.95 190.54-24.95 194.19-25.35 194.59-25Q194.64-22.8 194.84-20.65 195.04-18.5 195.14-17.9L195.14-17.9 192.84-17.75Q192.44-20.35 191.91-21.33 191.39-22.3 190.36-22.55 189.34-22.8 186.44-22.9L186.44-22.9Q186.19-20.5 185.99-14.93 185.79-9.35 185.79-4.65L185.79-4.65Q185.79-3.2 186.34-2.6 186.89-2 188.14-2L188.14-2Q189.04-2 189.61-2.05 190.19-2.1 190.34-2.1L190.34-2.1 190.49-1.95 190.14 0.15Q189.44 0.15 187.54 0.08 185.64 0 183.84 0L183.84 0Q182.04 0 180.29 0.08 178.54 0.15 177.89 0.2L177.89 0.2ZM196.13 7.85L195.23 7.1 195.23 6.6Q196.98 5.4 198.08 3.75 199.18 2.1 199.18 0.55L199.18 0.55Q199.18-0.45 198.73-1.38 198.28-2.3 197.58-2.95L197.58-2.95 197.68-3.65Q199.38-4.95 200.58-4.95L200.58-4.95Q201.68-4.95 202.41-3.93 203.13-2.9 203.13-1.05L203.13-1.05Q203.13 1.55 201.03 3.88 198.93 6.2 196.13 7.85L196.13 7.85ZM232.63 0.6Q228.13 0.6 224.73-1.3 221.33-3.2 219.5-6.68 217.68-10.15 217.68-14.85L217.68-14.85Q217.68-19.85 219.93-23.88 222.18-27.9 226.15-30.18 230.13-32.45 235.13-32.45L235.13-32.45Q236.98-32.45 238.9-32.18 240.83-31.9 242.15-31.63 243.48-31.35 243.83-31.25L243.83-31.25 244.03-30.95Q243.93-30.65 243.7-29.5 243.48-28.35 243.2-26.5 242.93-24.65 242.78-22.6L242.78-22.6 240.38-22.4Q240.43-22.65 240.48-23.33 240.53-24 240.53-24.85L240.53-24.85Q240.53-29.5 233.18-29.5L233.18-29.5Q229.88-29.5 227.38-27.9 224.88-26.3 223.53-23.38 222.18-20.45 222.18-16.5L222.18-16.5Q222.18-12.15 223.6-8.85 225.03-5.55 227.63-3.73 230.23-1.9 233.63-1.9L233.63-1.9Q237.03-1.9 239.1-3.83 241.18-5.75 242.13-9.8L242.13-9.8 244.53-10Q244.38-9.25 243.88-6.68 243.38-4.1 243.18-1.85L243.18-1.85 242.88-1.4Q242.88-1.35 241.35-0.83 239.83-0.3 237.55 0.15 235.28 0.6 232.63 0.6L232.63 0.6ZM268.53 0.6Q267.43 0.6 266.28-0.38 265.13-1.35 264.18-3.05L264.18-3.05 259.98-10.4 256.73-10.4 256.63-5.05Q256.63-3.6 256.83-2.98 257.03-2.35 257.6-2.15 258.18-1.95 259.58-1.9L259.58-1.9 259.68-1.75 259.28 0.15Q258.68 0.1 257.1 0.08 255.53 0.05 253.93 0.05L253.93 0.05Q252.38 0.05 251.23 0.1 250.08 0.15 249.68 0.2L249.68 0.2 250.03-1.85Q251.88-2.1 252.48-2.7 253.08-3.3 253.08-4.95L253.08-4.95 253.13-20.9Q253.13-22.1 252.83-22.53 252.53-22.95 251.68-22.95L251.68-22.95 250.28-22.9 250.13-23.1 250.43-25Q250.93-25 252.33-24.95 253.73-24.9 255.13-24.9L255.13-24.9Q256.58-24.9 258.23-24.98 259.88-25.05 260.48-25.05L260.48-25.05Q264.53-25.05 266.83-23.38 269.13-21.7 269.13-18.75L269.13-18.75Q269.13-16.45 267.58-14.5 266.03-12.55 263.23-11.3L263.23-11.3 267.48-4.9Q268.68-3.1 269.78-2.35 270.88-1.6 272.43-1.6L272.43-1.6 272.63-1.35 272.38 0.2 268.53 0.6ZM260.88-12.6Q261.83-13 262.55-13.38 263.28-13.75 264.18-14.95 265.08-16.15 265.08-18.05L265.08-18.05Q265.08-22.9 257.93-22.9L257.93-22.9Q257.53-22.9 257.38-22.73 257.23-22.55 257.23-22L257.23-22Q256.83-15.9 256.83-13L256.83-13 260.88-12.6ZM276.12 0.4L276.37-1.7Q278.22-1.9 278.87-2.6 279.52-3.3 279.52-5L279.52-5 279.57-20.85Q279.57-22.1 279.27-22.53 278.97-22.95 278.07-22.95L278.07-22.95 276.72-22.9 276.62-23.1 276.92-25Q277.52-25 279.27-24.95 281.02-24.9 283.07-24.9L283.07-24.9Q291.42-24.9 295.42-25.35L295.42-25.35 295.57-25.1Q295.47-24.55 295.12-22.6 294.77-20.65 294.62-18.4L294.62-18.4 292.22-18.2Q292.22-18.4 292.27-18.88 292.32-19.35 292.32-19.85L292.32-19.85Q292.32-21.15 291.95-21.68 291.57-22.2 290.4-22.38 289.22-22.55 286.32-22.55L286.32-22.55Q284.97-22.55 284.47-22.48 283.97-22.4 283.82-22.13 283.67-21.85 283.62-21.1L283.62-21.1 283.32-14 287.42-13.95Q288.32-13.95 290.07-14.13 291.82-14.3 292.37-14.35L292.37-14.35 292.57-14.1 291.97-11.5Q291.42-11.5 289.8-11.55 288.17-11.6 286.37-11.6L286.37-11.6Q284.97-11.6 283.22-11.35L283.22-11.35Q283.07-7.55 283.07-4.5L283.07-4.5Q283.07-3.35 283.25-2.9 283.42-2.45 284.05-2.3 284.67-2.15 286.12-2.15L286.12-2.15Q289.37-2.15 290.77-2.45 292.17-2.75 292.75-3.68 293.32-4.6 293.67-6.85L293.67-6.85 295.87-7.05 296.07-6.8Q295.92-6.25 295.55-4.23 295.17-2.2 294.97 0L294.97 0 294.67 0.25Q293.32 0.2 289.07 0.1 284.82 0 282.17 0L282.17 0Q280.12 0 278.37 0.18 276.62 0.35 276.12 0.4L276.12 0.4ZM313.02 0.35L312.87 0.1 313.02-1.7Q315.12-1.85 315.85-2.15 316.57-2.45 316.57-3.15L316.57-3.15Q316.57-3.95 316.22-4.85L316.22-4.85 315.02-8.7Q314.02-8.75 310.87-8.75L310.87-8.75Q309.42-8.75 306.57-8.45L306.57-8.45 305.17-4.75Q304.82-3.6 304.82-3.35L304.82-3.35Q304.82-2.55 305.37-2.2 305.92-1.85 307.17-1.85L307.17-1.85 309.32-1.85 309.47-1.65 309.17 0.25Q308.67 0.2 306.9 0.1 305.12 0 303.42 0L303.42 0Q301.82 0 300.55 0.05 299.27 0.1 298.82 0.1L298.82 0.1 299.12-1.95Q300.22-2.1 300.87-2.73 301.52-3.35 302.17-4.85L302.17-4.85 310.02-24.7 313.57-25.35 313.92-25.3Q313.92-25.1 316.2-17.4 318.47-9.7 320.27-4.65L320.27-4.65Q320.77-3.2 321.55-2.63 322.32-2.05 324.02-1.9L324.02-1.9 324.12-1.7 323.87 0.1Q323.37 0.1 322.02 0.05 320.67 0 319.32 0L319.32 0Q317.27 0 315.42 0.15 313.57 0.3 313.02 0.35L313.02 0.35ZM307.37-10.8L310.77-10.8Q312.52-10.8 314.42-11L314.42-11 311.37-20.7 311.02-20.7 307.37-10.8ZM328.57 0.2L328.92-1.8Q330.92-1.95 331.74-2.3 332.57-2.65 332.79-3.48 333.02-4.3 333.02-6.35L333.02-6.35 333.02-22.9Q329.87-22.8 328.77-22.55 327.67-22.3 327.14-21.38 326.62-20.45 326.27-17.9L326.27-17.9 323.92-17.75Q324.02-18.4 324.24-20.63 324.47-22.85 324.52-25L324.52-25 324.92-25.35 328.47-24.95 341.22-24.95 344.87-25.35 345.27-25Q345.32-22.8 345.52-20.65 345.72-18.5 345.82-17.9L345.82-17.9 343.52-17.75Q343.12-20.35 342.59-21.33 342.07-22.3 341.04-22.55 340.02-22.8 337.12-22.9L337.12-22.9Q336.87-20.5 336.67-14.93 336.47-9.35 336.47-4.65L336.47-4.65Q336.47-3.2 337.02-2.6 337.57-2 338.82-2L338.82-2Q339.72-2 340.29-2.05 340.87-2.1 341.02-2.1L341.02-2.1 341.17-1.95 340.82 0.15Q340.12 0.15 338.22 0.08 336.32 0 334.52 0L334.52 0Q332.72 0 330.97 0.08 329.22 0.15 328.57 0.2L328.57 0.2ZM349.47 0.4L349.72-1.7Q351.57-1.9 352.22-2.6 352.87-3.3 352.87-5L352.87-5 352.92-20.85Q352.92-22.1 352.62-22.53 352.32-22.95 351.42-22.95L351.42-22.95 350.07-22.9 349.97-23.1 350.27-25Q350.87-25 352.62-24.95 354.37-24.9 356.42-24.9L356.42-24.9Q364.77-24.9 368.77-25.35L368.77-25.35 368.92-25.1Q368.82-24.55 368.47-22.6 368.12-20.65 367.97-18.4L367.97-18.4 365.57-18.2Q365.57-18.4 365.62-18.88 365.67-19.35 365.67-19.85L365.67-19.85Q365.67-21.15 365.29-21.68 364.92-22.2 363.74-22.38 362.57-22.55 359.67-22.55L359.67-22.55Q358.32-22.55 357.82-22.48 357.32-22.4 357.17-22.13 357.02-21.85 356.97-21.1L356.97-21.1 356.67-14 360.77-13.95Q361.67-13.95 363.42-14.13 365.17-14.3 365.72-14.35L365.72-14.35 365.92-14.1 365.32-11.5Q364.77-11.5 363.14-11.55 361.52-11.6 359.72-11.6L359.72-11.6Q358.32-11.6 356.57-11.35L356.57-11.35Q356.42-7.55 356.42-4.5L356.42-4.5Q356.42-3.35 356.59-2.9 356.77-2.45 357.39-2.3 358.02-2.15 359.47-2.15L359.47-2.15Q362.72-2.15 364.12-2.45 365.52-2.75 366.09-3.68 366.67-4.6 367.02-6.85L367.02-6.85 369.22-7.05 369.42-6.8Q369.27-6.25 368.89-4.23 368.52-2.2 368.32 0L368.32 0 368.02 0.25Q366.67 0.2 362.42 0.1 358.17 0 355.52 0L355.52 0Q353.47 0 351.72 0.18 349.97 0.35 349.47 0.4L349.47 0.4ZM376.21 7.85L375.31 7.1 375.31 6.6Q377.06 5.4 378.16 3.75 379.26 2.1 379.26 0.55L379.26 0.55Q379.26-0.45 378.81-1.38 378.36-2.3 377.66-2.95L377.66-2.95 377.76-3.65Q379.46-4.95 380.66-4.95L380.66-4.95Q381.76-4.95 382.49-3.93 383.21-2.9 383.21-1.05L383.21-1.05Q383.21 1.55 381.11 3.88 379.01 6.2 376.21 7.85L376.21 7.85ZM412.71 0.6Q408.21 0.6 404.81-1.3 401.41-3.2 399.58-6.68 397.76-10.15 397.76-14.85L397.76-14.85Q397.76-19.85 400.01-23.88 402.26-27.9 406.23-30.18 410.21-32.45 415.21-32.45L415.21-32.45Q417.06-32.45 418.98-32.18 420.91-31.9 422.23-31.63 423.56-31.35 423.91-31.25L423.91-31.25 424.11-30.95Q424.01-30.65 423.78-29.5 423.56-28.35 423.28-26.5 423.01-24.65 422.86-22.6L422.86-22.6 420.46-22.4Q420.51-22.65 420.56-23.33 420.61-24 420.61-24.85L420.61-24.85Q420.61-29.5 413.26-29.5L413.26-29.5Q409.96-29.5 407.46-27.9 404.96-26.3 403.61-23.38 402.26-20.45 402.26-16.5L402.26-16.5Q402.26-12.15 403.68-8.85 405.11-5.55 407.71-3.73 410.31-1.9 413.71-1.9L413.71-1.9Q417.11-1.9 419.18-3.83 421.26-5.75 422.21-9.8L422.21-9.8 424.61-10Q424.46-9.25 423.96-6.68 423.46-4.1 423.26-1.85L423.26-1.85 422.96-1.4Q422.96-1.35 421.43-0.83 419.91-0.3 417.63 0.15 415.36 0.6 412.71 0.6L412.71 0.6ZM440 0.45Q436.6 0.45 433.98-1.05 431.35-2.55 429.93-5.3 428.5-8.05 428.5-11.65L428.5-11.65Q428.5-15.55 430.28-18.68 432.06-21.8 435.13-23.58 438.2-25.35 442-25.35L442-25.35Q445.45-25.35 448.1-23.85 450.75-22.35 452.2-19.63 453.65-16.9 453.65-13.3L453.65-13.3Q453.65-9.4 451.88-6.28 450.1-3.15 446.98-1.35 443.85 0.45 440 0.45L440 0.45ZM441.2-1.95Q444.85-1.95 447.1-4.58 449.35-7.2 449.35-11.55L449.35-11.55Q449.35-14.85 448.28-17.35 447.2-19.85 445.23-21.2 443.25-22.55 440.65-22.55L440.65-22.55Q437.1-22.55 434.93-19.95 432.75-17.35 432.75-13L432.75-13Q432.75-9.7 433.81-7.2 434.85-4.7 436.78-3.33 438.7-1.95 441.2-1.95L441.2-1.95ZM458.75 0.4L459.05-1.7Q460.65-1.95 461.23-2.63 461.8-3.3 461.8-5L461.8-5 461.85-20.85Q461.85-22.1 461.55-22.53 461.25-22.95 460.35-22.95L460.35-22.95 459-22.9 458.85-23.1 459.15-25Q459.4-25 460.65-24.95 461.9-24.9 464-24.9L464-24.9Q465.1-24.9 466.73-25.05 468.35-25.2 468.85-25.25L468.85-25.25 468.65-23.15Q467.3-23 466.75-22.68 466.2-22.35 466.1-21.85 466-21.35 465.85-19.8L465.85-19.8Q465.35-13.1 465.35-4.95L465.35-4.95Q465.35-3.7 465.58-3.13 465.8-2.55 466.48-2.35 467.15-2.15 468.6-2.15L468.6-2.15Q471-2.15 472.13-2.55 473.25-2.95 473.83-4.13 474.4-5.3 474.85-7.85L474.85-7.85 477.05-8.1 477.2-7.8Q477.1-7.15 476.73-4.83 476.35-2.5 476.05 0.05L476.05 0.05 475.8 0.35Q474.65 0.3 470.93 0.15 467.2 0 464.65 0L464.65 0Q462.65 0 460.93 0.18 459.2 0.35 458.75 0.4L458.75 0.4ZM479.85 0.4L480.15-1.7Q481.75-1.95 482.32-2.63 482.9-3.3 482.9-5L482.9-5 482.95-20.85Q482.95-22.1 482.65-22.53 482.35-22.95 481.45-22.95L481.45-22.95 480.1-22.9 479.95-23.1 480.25-25Q480.5-25 481.75-24.95 483-24.9 485.1-24.9L485.1-24.9Q486.2-24.9 487.82-25.05 489.45-25.2 489.95-25.25L489.95-25.25 489.75-23.15Q488.4-23 487.85-22.68 487.3-22.35 487.2-21.85 487.1-21.35 486.95-19.8L486.95-19.8Q486.45-13.1 486.45-4.95L486.45-4.95Q486.45-3.7 486.68-3.13 486.9-2.55 487.57-2.35 488.25-2.15 489.7-2.15L489.7-2.15Q492.1-2.15 493.23-2.55 494.35-2.95 494.93-4.13 495.5-5.3 495.95-7.85L495.95-7.85 498.15-8.1 498.3-7.8Q498.2-7.15 497.82-4.83 497.45-2.5 497.15 0.05L497.15 0.05 496.9 0.35Q495.75 0.3 492.03 0.15 488.3 0 485.75 0L485.75 0Q483.75 0 482.03 0.18 480.3 0.35 479.85 0.4L479.85 0.4ZM514.35 0.35L514.2 0.1 514.35-1.7Q516.45-1.85 517.17-2.15 517.9-2.45 517.9-3.15L517.9-3.15Q517.9-3.95 517.55-4.85L517.55-4.85 516.35-8.7Q515.35-8.75 512.2-8.75L512.2-8.75Q510.75-8.75 507.9-8.45L507.9-8.45 506.5-4.75Q506.15-3.6 506.15-3.35L506.15-3.35Q506.15-2.55 506.7-2.2 507.25-1.85 508.5-1.85L508.5-1.85 510.65-1.85 510.8-1.65 510.5 0.25Q510 0.2 508.22 0.1 506.45 0 504.75 0L504.75 0Q503.15 0 501.87 0.05 500.6 0.1 500.15 0.1L500.15 0.1 500.45-1.95Q501.55-2.1 502.2-2.73 502.85-3.35 503.5-4.85L503.5-4.85 511.35-24.7 514.9-25.35 515.25-25.3Q515.25-25.1 517.52-17.4 519.8-9.7 521.6-4.65L521.6-4.65Q522.1-3.2 522.87-2.63 523.65-2.05 525.35-1.9L525.35-1.9 525.45-1.7 525.2 0.1Q524.7 0.1 523.35 0.05 522 0 520.65 0L520.65 0Q518.6 0 516.75 0.15 514.9 0.3 514.35 0.35L514.35 0.35ZM508.7-10.8L512.1-10.8Q513.85-10.8 515.75-11L515.75-11 512.7-20.7 512.35-20.7 508.7-10.8ZM533.35 0Q532.04 0 530.44 0.18 528.85 0.35 528.35 0.45L528.35 0.45 528.6-1.6Q530.44-1.95 531.1-2.63 531.75-3.3 531.75-4.9L531.75-4.9 531.79-20.9Q531.79-22.1 531.5-22.53 531.19-22.95 530.35-22.95L530.35-22.95 528.94-22.9 528.79-23.1 529.1-25Q529.64-25 531.1-24.95 532.54-24.9 533.94-24.9L533.94-24.9Q535.39-24.9 536.97-24.98 538.54-25.05 539.14-25.1L539.14-25.1Q543.1-25.1 545.25-23.55 547.39-22 547.39-19.1L547.39-19.1Q547.39-17.1 546.12-15.5 544.85-13.9 542.75-13.1L542.75-13.1Q545.5-12.55 547.22-11.03 548.94-9.5 548.94-7.25L548.94-7.25Q548.94-5.15 547.62-3.4 546.29-1.65 544.02-0.63 541.75 0.4 539.04 0.4L539.04 0.4Q538.25 0.4 536.64 0.2L536.64 0.2Q534.44 0 533.35 0L533.35 0ZM535.54-13.9Q536.14-13.85 537.52-13.75 538.89-13.65 539.85-13.6L539.85-13.6Q539.85-13.5 540.85-14 541.85-14.5 542.64-15.55 543.44-16.6 543.44-18.35L543.44-18.35Q543.44-20.7 541.77-21.8 540.1-22.9 536.6-22.9L536.6-22.9Q536.19-22.9 536.07-22.73 535.94-22.55 535.89-22.05L535.89-22.05Q535.64-18.9 535.54-13.9L535.54-13.9ZM535.44-11.4L535.29-4.6Q535.29-3.2 536.29-2.63 537.29-2.05 539.75-2.05L539.75-2.05Q542.1-2.05 543.42-3.25 544.75-4.45 544.75-6.55L544.75-6.55Q544.75-8.5 543.44-9.75 542.14-11 539.6-11.45L539.6-11.45 535.44-11.4ZM565.09 0.45Q561.69 0.45 559.07-1.05 556.44-2.55 555.02-5.3 553.59-8.05 553.59-11.65L553.59-11.65Q553.59-15.55 555.37-18.68 557.14-21.8 560.22-23.58 563.29-25.35 567.09-25.35L567.09-25.35Q570.54-25.35 573.19-23.85 575.84-22.35 577.29-19.63 578.74-16.9 578.74-13.3L578.74-13.3Q578.74-9.4 576.97-6.28 575.19-3.15 572.07-1.35 568.94 0.45 565.09 0.45L565.09 0.45ZM566.29-1.95Q569.94-1.95 572.19-4.58 574.44-7.2 574.44-11.55L574.44-11.55Q574.44-14.85 573.37-17.35 572.29-19.85 570.32-21.2 568.34-22.55 565.74-22.55L565.74-22.55Q562.19-22.55 560.02-19.95 557.84-17.35 557.84-13L557.84-13Q557.84-9.7 558.89-7.2 559.94-4.7 561.87-3.33 563.79-1.95 566.29-1.95L566.29-1.95ZM602.34 0.6Q601.24 0.6 600.09-0.38 598.94-1.35 597.99-3.05L597.99-3.05 593.79-10.4 590.54-10.4 590.44-5.05Q590.44-3.6 590.64-2.98 590.84-2.35 591.41-2.15 591.99-1.95 593.39-1.9L593.39-1.9 593.49-1.75 593.09 0.15Q592.49 0.1 590.91 0.08 589.34 0.05 587.74 0.05L587.74 0.05Q586.19 0.05 585.04 0.1 583.89 0.15 583.49 0.2L583.49 0.2 583.84-1.85Q585.69-2.1 586.29-2.7 586.89-3.3 586.89-4.95L586.89-4.95 586.94-20.9Q586.94-22.1 586.64-22.53 586.34-22.95 585.49-22.95L585.49-22.95 584.09-22.9 583.94-23.1 584.24-25Q584.74-25 586.14-24.95 587.54-24.9 588.94-24.9L588.94-24.9Q590.39-24.9 592.04-24.98 593.69-25.05 594.29-25.05L594.29-25.05Q598.34-25.05 600.64-23.38 602.94-21.7 602.94-18.75L602.94-18.75Q602.94-16.45 601.39-14.5 599.84-12.55 597.04-11.3L597.04-11.3 601.29-4.9Q602.49-3.1 603.59-2.35 604.69-1.6 606.24-1.6L606.24-1.6 606.44-1.35 606.19 0.2 602.34 0.6ZM594.69-12.6Q595.64-13 596.36-13.38 597.09-13.75 597.99-14.95 598.89-16.15 598.89-18.05L598.89-18.05Q598.89-22.9 591.74-22.9L591.74-22.9Q591.34-22.9 591.19-22.73 591.04-22.55 591.04-22L591.04-22Q590.64-15.9 590.64-13L590.64-13 594.69-12.6ZM621.44 0.35L621.29 0.1 621.44-1.7Q623.54-1.85 624.26-2.15 624.99-2.45 624.99-3.15L624.99-3.15Q624.99-3.95 624.64-4.85L624.64-4.85 623.44-8.7Q622.44-8.75 619.29-8.75L619.29-8.75Q617.84-8.75 614.99-8.45L614.99-8.45 613.59-4.75Q613.24-3.6 613.24-3.35L613.24-3.35Q613.24-2.55 613.79-2.2 614.34-1.85 615.59-1.85L615.59-1.85 617.74-1.85 617.89-1.65 617.59 0.25Q617.09 0.2 615.31 0.1 613.54 0 611.84 0L611.84 0Q610.24 0 608.96 0.05 607.69 0.1 607.24 0.1L607.24 0.1 607.54-1.95Q608.64-2.1 609.29-2.73 609.94-3.35 610.59-4.85L610.59-4.85 618.44-24.7 621.99-25.35 622.34-25.3Q622.34-25.1 624.61-17.4 626.89-9.7 628.69-4.65L628.69-4.65Q629.19-3.2 629.96-2.63 630.74-2.05 632.44-1.9L632.44-1.9 632.54-1.7 632.29 0.1Q631.79 0.1 630.44 0.05 629.09 0 627.74 0L627.74 0Q625.69 0 623.84 0.15 621.99 0.3 621.44 0.35L621.44 0.35ZM615.79-10.8L619.19-10.8Q620.94-10.8 622.84-11L622.84-11 619.79-20.7 619.44-20.7 615.79-10.8ZM636.98 0.2L637.33-1.8Q639.33-1.95 640.16-2.3 640.98-2.65 641.21-3.48 641.43-4.3 641.43-6.35L641.43-6.35 641.43-22.9Q638.28-22.8 637.18-22.55 636.08-22.3 635.56-21.38 635.03-20.45 634.68-17.9L634.68-17.9 632.33-17.75Q632.43-18.4 632.66-20.63 632.88-22.85 632.93-25L632.93-25 633.33-25.35 636.88-24.95 649.63-24.95 653.28-25.35 653.68-25Q653.73-22.8 653.93-20.65 654.13-18.5 654.23-17.9L654.23-17.9 651.93-17.75Q651.53-20.35 651.01-21.33 650.48-22.3 649.46-22.55 648.43-22.8 645.53-22.9L645.53-22.9Q645.28-20.5 645.08-14.93 644.88-9.35 644.88-4.65L644.88-4.65Q644.88-3.2 645.43-2.6 645.98-2 647.23-2L647.23-2Q648.13-2 648.71-2.05 649.28-2.1 649.43-2.1L649.43-2.1 649.58-1.95 649.23 0.15Q648.53 0.15 646.63 0.08 644.73 0 642.93 0L642.93 0Q641.13 0 639.38 0.08 637.63 0.15 636.98 0.2L636.98 0.2ZM657.88 0.4L658.13-1.7Q659.98-1.9 660.63-2.6 661.28-3.3 661.28-5L661.28-5 661.33-20.85Q661.33-22.1 661.03-22.53 660.73-22.95 659.83-22.95L659.83-22.95 658.48-22.9 658.38-23.1 658.68-25Q659.28-25 661.03-24.95 662.78-24.9 664.83-24.9L664.83-24.9Q673.18-24.9 677.18-25.35L677.18-25.35 677.33-25.1Q677.23-24.55 676.88-22.6 676.53-20.65 676.38-18.4L676.38-18.4 673.98-18.2Q673.98-18.4 674.03-18.88 674.08-19.35 674.08-19.85L674.08-19.85Q674.08-21.15 673.71-21.68 673.33-22.2 672.16-22.38 670.98-22.55 668.08-22.55L668.08-22.55Q666.73-22.55 666.23-22.48 665.73-22.4 665.58-22.13 665.43-21.85 665.38-21.1L665.38-21.1 665.08-14 669.18-13.95Q670.08-13.95 671.83-14.13 673.58-14.3 674.13-14.35L674.13-14.35 674.33-14.1 673.73-11.5Q673.18-11.5 671.56-11.55 669.93-11.6 668.13-11.6L668.13-11.6Q666.73-11.6 664.98-11.35L664.98-11.35Q664.83-7.55 664.83-4.5L664.83-4.5Q664.83-3.35 665.01-2.9 665.18-2.45 665.81-2.3 666.43-2.15 667.88-2.15L667.88-2.15Q671.13-2.15 672.53-2.45 673.93-2.75 674.51-3.68 675.08-4.6 675.43-6.85L675.43-6.85 677.63-7.05 677.83-6.8Q677.68-6.25 677.31-4.23 676.93-2.2 676.73 0L676.73 0 676.43 0.25Q675.08 0.2 670.83 0.1 666.58 0 663.93 0L663.93 0Q661.88 0 660.13 0.18 658.38 0.35 657.88 0.4L657.88 0.4Z" opacity="1" transform="matrix(1,0,0,1,0,0)" fill="#61777f" class="slogan-text-1" data-fill-palette-color="secondary" id="text-1"></path></svg></g></svg></g></svg></g></svg></g><g><svg viewBox="0 0 156.8588550496227 156.8588550496227" height="156.8588550496227" width="156.8588550496227"><g><svg></svg></g><g id="icon-0"><svg viewBox="0 0 156.8588550496227 156.8588550496227" height="156.8588550496227" width="156.8588550496227"><g><path d="M0 78.429c0-43.315 35.114-78.429 78.429-78.429 43.315 0 78.429 35.114 78.43 78.429 0 43.315-35.114 78.429-78.43 78.43-43.315 0-78.429-35.114-78.429-78.43zM78.429 153.129c41.256 0 74.7-33.444 74.7-74.7 0-41.256-33.444-74.7-74.7-74.7-41.256 0-74.7 33.444-74.7 74.7 0 41.256 33.444 74.7 74.7 74.7z" data-fill-palette-color="accent" fill="#61777f" stroke="transparent"></path></g><g transform="matrix(1,0,0,1,32.42967365069991,34.25049724155015)"><svg viewBox="0 0 91.99950774822287 88.35786056652239" height="88.35786056652239" width="91.99950774822287"><g><svg xmlns="http://www.w3.org/2000/svg" xmlns:xlink="http://www.w3.org/1999/xlink" version="1.1" x="0" y="0" viewBox="0 1 48 46.1" style="enable-background:new 0 0 48 48;" xml:space="preserve" height="88.35786056652239" width="91.99950774822287" class="icon-dxe-0" data-fill-palette-color="accent" id="dxe-0"><g fill="#61777f" data-fill-palette-color="accent"><path d="M22.4 8.8C13.6 8.8 6.5 15.9 6.5 24.7S13.6 40.6 22.4 40.6 38.3 33.5 38.3 24.7 31.2 8.8 22.4 8.8M22.4 38.6C14.7 38.6 8.5 32.4 8.5 24.7S14.7 10.8 22.4 10.8 36.3 17 36.3 24.7 30.1 38.6 22.4 38.6" fill="#61777f" data-fill-palette-color="accent"></path><path d="M22.4 15.3C17.2 15.3 13 19.5 13 24.7 13 25.7 13.2 26.8 13.5 27.7 12.9 28.5 12.6 29.5 12.6 30.5 12.6 33.2 14.8 35.4 17.5 35.4 18.9 35.4 20.2 34.8 21.1 33.9 21.5 34 21.9 34 22.4 34 27.6 34 31.8 29.8 31.8 24.6 31.8 19.5 27.6 15.3 22.4 15.3M17.6 33.5C16 33.5 14.7 32.2 14.7 30.6S16 27.7 17.6 27.7 20.5 29 20.5 30.6 19.2 33.5 17.6 33.5M22.4 32.1H22.2C22.4 31.6 22.5 31.1 22.5 30.6 22.5 27.9 20.3 25.7 17.6 25.7 16.7 25.7 15.9 25.9 15.2 26.3 15.1 25.8 15 25.3 15 24.7 15 20.6 18.3 17.3 22.4 17.3S29.8 20.6 29.8 24.7 26.5 32.1 22.4 32.1" fill="#61777f" data-fill-palette-color="accent"></path><path d="M44.7 22.5C43.6 11.1 34 2.3 22.4 2.3 19.1 2.3 15.8 3 12.8 4.5 11.8 2.4 9.6 1 7.1 1 3.6 1 0.8 3.8 0.8 7.3 0.8 9.5 1.9 11.4 3.6 12.5 1.3 16.1 0 20.3 0 24.7 0 37 10 47.1 22.4 47.1 32.5 47.1 41.2 40.4 43.9 30.8 46.2 30.7 48 28.9 48 26.6 48 24.6 46.6 22.9 44.7 22.5M2.9 7.2C2.9 4.8 4.8 2.9 7.2 2.9S11.5 4.8 11.5 7.2 9.6 11.5 7.2 11.5 2.9 9.6 2.9 7.2M22.4 45.1C11.1 45.1 2 35.9 2 24.7 2 20.6 3.2 16.7 5.5 13.3 6 13.4 6.6 13.5 7.2 13.5 10.7 13.5 13.5 10.7 13.5 7.2 13.5 6.9 13.5 6.7 13.4 6.4 16.2 5 19.3 4.3 22.4 4.3 32.9 4.3 41.6 12.3 42.7 22.6 40.9 23.1 39.6 24.7 39.6 26.6 39.6 28.3 40.6 29.7 42 30.4 39.5 39.1 31.5 45.1 22.4 45.1M43.8 28.8C42.6 28.8 41.6 27.8 41.6 26.6S42.6 24.4 43.8 24.4 46 25.4 46 26.6 45 28.8 43.8 28.8" fill="#61777f" data-fill-palette-color="accent"></path></g></svg></g></svg></g></svg></g></svg></g></svg></g><defs></defs></svg><rect width="395.52" height="108.4810551057857" fill="none" stroke="none" visibility="hidden"></rect></g></svg></g></svg>